<mxfile host="app.diagrams.net" modified="2021-03-25T16:47:13.915Z" agent="5.0 (Windows NT 10.0; Win64; x64) AppleWebKit/537.36 (KHTML, like Gecko) Chrome/89.0.4389.82 Safari/537.36" etag="ikMfs0Q8dv538ehVCzwk" version="14.4.9" type="github">
  <diagram name="Page-1" id="e7e014a7-5840-1c2e-5031-d8a46d1fe8dd">
    <mxGraphModel dx="1038" dy="2227" grid="1" gridSize="10" guides="1" tooltips="1" connect="1" arrows="1" fold="1" page="1" pageScale="1" pageWidth="1169" pageHeight="826" background="#ffffff" math="0" shadow="0">
      <root>
        <mxCell id="0" />
        <mxCell id="1" parent="0" />
        <mxCell id="lzLQNb4hXkD1QpoMvITh-41" value="business layer" style="shape=folder;fontStyle=1;spacingTop=1;tabWidth=150;tabHeight=30;tabPosition=left;html=1;align=left;verticalAlign=top;fontSize=15;horizontal=1;textDirection=ltr;fillColor=#f5f5f5;strokeColor=#666666;fontColor=#333333;" parent="1" vertex="1">
          <mxGeometry x="40" y="-1440" width="880" height="1350" as="geometry" />
        </mxCell>
        <mxCell id="lzLQNb4hXkD1QpoMvITh-362" value="Shift" style="shape=folder;fontStyle=1;spacingTop=4;tabWidth=80;tabHeight=30;tabPosition=left;html=1;labelBackgroundColor=none;strokeColor=#d6b656;fontSize=16;fillColor=#fff2cc;align=left;verticalAlign=top;" parent="1" vertex="1">
          <mxGeometry x="598" y="-640" width="300" height="430" as="geometry" />
        </mxCell>
        <mxCell id="lzLQNb4hXkD1QpoMvITh-359" value="Employee" style="shape=folder;fontStyle=1;spacingTop=4;tabWidth=140;tabHeight=30;tabPosition=left;html=1;labelBackgroundColor=none;strokeColor=#6c8ebf;fontSize=16;fillColor=#dae8fc;align=left;verticalAlign=top;" parent="1" vertex="1">
          <mxGeometry x="60" y="-640" width="488" height="530" as="geometry" />
        </mxCell>
        <mxCell id="20" value="" style="endArrow=open;strokeColor=#FF0000;endFill=1;rounded=0" parent="1" edge="1">
          <mxGeometry relative="1" as="geometry">
            <mxPoint x="334.5" y="478" as="sourcePoint" />
          </mxGeometry>
        </mxCell>
        <mxCell id="lzLQNb4hXkD1QpoMvITh-50" value="Shift" style="swimlane;fontStyle=1;align=center;verticalAlign=top;childLayout=stackLayout;horizontal=1;startSize=26;horizontalStack=0;resizeParent=1;resizeParentMax=0;resizeLast=0;collapsible=1;marginBottom=0;fontSize=15;gradientColor=#ffffff;swimlaneFillColor=#ffffff;" parent="1" vertex="1">
          <mxGeometry x="648" y="-434" width="180" height="78" as="geometry" />
        </mxCell>
        <mxCell id="lzLQNb4hXkD1QpoMvITh-51" value="- date: Date" style="text;strokeColor=none;fillColor=none;align=left;verticalAlign=top;spacingLeft=4;spacingRight=4;overflow=hidden;rotatable=0;points=[[0,0.5],[1,0.5]];portConstraint=eastwest;" parent="lzLQNb4hXkD1QpoMvITh-50" vertex="1">
          <mxGeometry y="26" width="180" height="26" as="geometry" />
        </mxCell>
        <mxCell id="lzLQNb4hXkD1QpoMvITh-120" value="- manning: map&lt;Role, int[]&gt;" style="text;strokeColor=none;fillColor=none;align=left;verticalAlign=top;spacingLeft=4;spacingRight=4;overflow=hidden;rotatable=0;points=[[0,0.5],[1,0.5]];portConstraint=eastwest;" parent="lzLQNb4hXkD1QpoMvITh-50" vertex="1">
          <mxGeometry y="52" width="180" height="26" as="geometry" />
        </mxCell>
        <mxCell id="lzLQNb4hXkD1QpoMvITh-107" value="WeeklyShiftSchedule" style="swimlane;fontStyle=1;align=center;verticalAlign=top;childLayout=stackLayout;horizontal=1;startSize=26;horizontalStack=0;resizeParent=1;resizeParentMax=0;resizeLast=0;collapsible=1;marginBottom=0;fontSize=15;gradientColor=#ffffff;swimlaneFillColor=#ffffff;" parent="1" vertex="1">
          <mxGeometry x="648" y="-530" width="180" height="52" as="geometry" />
        </mxCell>
        <mxCell id="lzLQNb4hXkD1QpoMvITh-154" value="+ startingDate: Date" style="text;strokeColor=none;fillColor=none;align=left;verticalAlign=top;spacingLeft=4;spacingRight=4;overflow=hidden;rotatable=0;points=[[0,0.5],[1,0.5]];portConstraint=eastwest;" parent="lzLQNb4hXkD1QpoMvITh-107" vertex="1">
          <mxGeometry y="26" width="180" height="26" as="geometry" />
        </mxCell>
        <mxCell id="lzLQNb4hXkD1QpoMvITh-174" value="1" style="endArrow=open;html=1;endSize=12;startArrow=diamondThin;startSize=14;startFill=1;edgeStyle=orthogonalEdgeStyle;align=left;verticalAlign=bottom;labelBackgroundColor=none;fontSize=15;exitX=0.25;exitY=0;exitDx=0;exitDy=0;entryX=0.5;entryY=0;entryDx=0;entryDy=0;" parent="1" source="lzLQNb4hXkD1QpoMvITh-56" target="lzLQNb4hXkD1QpoMvITh-132" edge="1">
          <mxGeometry x="-0.8477" relative="1" as="geometry">
            <mxPoint x="383" y="-58.999999999999545" as="sourcePoint" />
            <mxPoint x="433" y="-180" as="targetPoint" />
            <Array as="points">
              <mxPoint x="383" y="-500" />
              <mxPoint x="288" y="-500" />
              <mxPoint x="288" y="-590" />
              <mxPoint x="173" y="-590" />
            </Array>
            <mxPoint as="offset" />
          </mxGeometry>
        </mxCell>
        <mxCell id="lzLQNb4hXkD1QpoMvITh-183" value="" style="endArrow=cross;endFill=0;html=1;edgeStyle=orthogonalEdgeStyle;align=left;verticalAlign=top;labelBackgroundColor=none;fontSize=15;exitX=0.5;exitY=0;exitDx=0;exitDy=0;entryX=0;entryY=0.5;entryDx=0;entryDy=0;" parent="1" source="lzLQNb4hXkD1QpoMvITh-56" target="lzLQNb4hXkD1QpoMvITh-42" edge="1">
          <mxGeometry x="0.5784" y="130" relative="1" as="geometry">
            <mxPoint x="508" y="-60" as="sourcePoint" />
            <mxPoint x="328" y="-600.9999999999995" as="targetPoint" />
            <Array as="points">
              <mxPoint x="428" y="-510" />
              <mxPoint x="318" y="-510" />
              <mxPoint x="318" y="-560" />
              <mxPoint x="338" y="-560" />
            </Array>
            <mxPoint x="-5" y="-35" as="offset" />
          </mxGeometry>
        </mxCell>
        <mxCell id="lzLQNb4hXkD1QpoMvITh-184" value="1" style="edgeLabel;resizable=0;html=1;align=left;verticalAlign=bottom;labelBackgroundColor=none;" parent="lzLQNb4hXkD1QpoMvITh-183" connectable="0" vertex="1">
          <mxGeometry x="-1" relative="1" as="geometry">
            <mxPoint x="-10" y="-3" as="offset" />
          </mxGeometry>
        </mxCell>
        <mxCell id="lzLQNb4hXkD1QpoMvITh-185" value="" style="endArrow=block;endFill=1;html=1;edgeStyle=orthogonalEdgeStyle;align=left;verticalAlign=top;labelBackgroundColor=none;fontSize=15;exitX=1;exitY=0.5;exitDx=0;exitDy=0;entryX=0.5;entryY=0;entryDx=0;entryDy=0;" parent="1" source="lzLQNb4hXkD1QpoMvITh-350" target="lzLQNb4hXkD1QpoMvITh-107" edge="1">
          <mxGeometry x="-0.7765" y="-21" relative="1" as="geometry">
            <mxPoint x="998" y="-550.9999999999995" as="sourcePoint" />
            <mxPoint x="218" y="30" as="targetPoint" />
            <Array as="points">
              <mxPoint x="858" y="-573" />
              <mxPoint x="858" y="-550" />
              <mxPoint x="738" y="-550" />
            </Array>
            <mxPoint x="-21" y="21" as="offset" />
          </mxGeometry>
        </mxCell>
        <mxCell id="lzLQNb4hXkD1QpoMvITh-186" value="1" style="edgeLabel;resizable=0;html=1;align=left;verticalAlign=bottom;labelBackgroundColor=none;" parent="lzLQNb4hXkD1QpoMvITh-185" connectable="0" vertex="1">
          <mxGeometry x="-1" relative="1" as="geometry">
            <mxPoint x="10" y="17" as="offset" />
          </mxGeometry>
        </mxCell>
        <mxCell id="lzLQNb4hXkD1QpoMvITh-187" value="composed" style="endArrow=open;html=1;endSize=12;startArrow=diamondThin;startSize=14;startFill=1;edgeStyle=orthogonalEdgeStyle;labelBackgroundColor=none;fontSize=15;exitX=1;exitY=0.5;exitDx=0;exitDy=0;entryX=0.5;entryY=0;entryDx=0;entryDy=0;" parent="1" source="lzLQNb4hXkD1QpoMvITh-154" target="lzLQNb4hXkD1QpoMvITh-50" edge="1">
          <mxGeometry x="-0.1971" y="10" relative="1" as="geometry">
            <mxPoint x="998" y="-290.99999999999955" as="sourcePoint" />
            <mxPoint x="428" y="62" as="targetPoint" />
            <Array as="points">
              <mxPoint x="858" y="-491" />
              <mxPoint x="858" y="-460" />
              <mxPoint x="738" y="-460" />
            </Array>
            <mxPoint x="-1" as="offset" />
          </mxGeometry>
        </mxCell>
        <mxCell id="lzLQNb4hXkD1QpoMvITh-188" value="1" style="edgeLabel;resizable=0;html=1;align=left;verticalAlign=top;" parent="lzLQNb4hXkD1QpoMvITh-187" connectable="0" vertex="1">
          <mxGeometry x="-1" relative="1" as="geometry" />
        </mxCell>
        <mxCell id="lzLQNb4hXkD1QpoMvITh-189" value="1" style="edgeLabel;resizable=0;html=1;align=right;verticalAlign=top;labelBackgroundColor=none;" parent="lzLQNb4hXkD1QpoMvITh-187" connectable="0" vertex="1">
          <mxGeometry x="1" relative="1" as="geometry">
            <mxPoint x="-10" y="-30.21" as="offset" />
          </mxGeometry>
        </mxCell>
        <mxCell id="lzLQNb4hXkD1QpoMvITh-192" value="presentation layer" style="shape=folder;fontStyle=1;spacingTop=1;tabWidth=150;tabHeight=30;tabPosition=left;html=1;align=left;verticalAlign=top;fontSize=15;horizontal=1;textDirection=ltr;fillColor=#f5f5f5;strokeColor=#666666;fontColor=#333333;" parent="1" vertex="1">
          <mxGeometry x="40" y="-1630" width="880" height="170" as="geometry" />
        </mxCell>
        <mxCell id="lzLQNb4hXkD1QpoMvITh-194" value="data access layer" style="shape=folder;fontStyle=1;spacingTop=1;tabWidth=150;tabHeight=30;tabPosition=left;html=1;align=left;verticalAlign=top;fontSize=15;horizontal=1;textDirection=ltr;fillColor=#f5f5f5;strokeColor=#666666;fontColor=#333333;" parent="1" vertex="1">
          <mxGeometry x="40" y="-70" width="880" height="230" as="geometry" />
        </mxCell>
        <mxCell id="lzLQNb4hXkD1QpoMvITh-218" value="has" style="endArrow=none;endSize=12;html=1;labelBackgroundColor=none;fontSize=15;exitX=0;exitY=0.5;exitDx=0;exitDy=0;entryX=0.5;entryY=0;entryDx=0;entryDy=0;edgeStyle=orthogonalEdgeStyle;startArrow=cross;startFill=0;endFill=0;" parent="1" source="lzLQNb4hXkD1QpoMvITh-131" target="lzLQNb4hXkD1QpoMvITh-209" edge="1">
          <mxGeometry x="0.011" y="-10" width="160" relative="1" as="geometry">
            <mxPoint x="383" y="-32.999999999999545" as="sourcePoint" />
            <mxPoint x="696.9999999999998" y="80" as="targetPoint" />
            <Array as="points">
              <mxPoint x="318" y="-383" />
              <mxPoint x="318" y="-290" />
              <mxPoint x="178" y="-290" />
            </Array>
            <mxPoint as="offset" />
          </mxGeometry>
        </mxCell>
        <mxCell id="lzLQNb4hXkD1QpoMvITh-544" value="*" style="edgeLabel;html=1;align=center;verticalAlign=middle;resizable=0;points=[];fontSize=16;labelBackgroundColor=none;" parent="lzLQNb4hXkD1QpoMvITh-218" vertex="1" connectable="0">
          <mxGeometry x="0.679" y="2" relative="1" as="geometry">
            <mxPoint x="-33.86" y="20" as="offset" />
          </mxGeometry>
        </mxCell>
        <mxCell id="lzLQNb4hXkD1QpoMvITh-228" value="qualified" style="endArrow=open;html=1;endSize=12;startArrow=cross;startSize=14;startFill=0;edgeStyle=orthogonalEdgeStyle;fontSize=15;exitX=1;exitY=0.5;exitDx=0;exitDy=0;labelBackgroundColor=none;entryX=0.5;entryY=0;entryDx=0;entryDy=0;" parent="1" source="lzLQNb4hXkD1QpoMvITh-57" target="lzLQNb4hXkD1QpoMvITh-195" edge="1">
          <mxGeometry x="0.1111" y="10" relative="1" as="geometry">
            <mxPoint x="1013" y="-81" as="sourcePoint" />
            <mxPoint x="853" y="-132" as="targetPoint" />
            <Array as="points">
              <mxPoint x="540" y="-435" />
              <mxPoint x="540" y="-350" />
              <mxPoint x="428" y="-350" />
            </Array>
            <mxPoint as="offset" />
          </mxGeometry>
        </mxCell>
        <mxCell id="lzLQNb4hXkD1QpoMvITh-229" value="0..n" style="edgeLabel;resizable=0;html=1;align=left;verticalAlign=top;labelBackgroundColor=none;" parent="lzLQNb4hXkD1QpoMvITh-228" connectable="0" vertex="1">
          <mxGeometry x="-1" relative="1" as="geometry" />
        </mxCell>
        <mxCell id="lzLQNb4hXkD1QpoMvITh-230" value="1" style="edgeLabel;resizable=0;html=1;align=right;verticalAlign=top;labelBackgroundColor=none;" parent="lzLQNb4hXkD1QpoMvITh-228" connectable="0" vertex="1">
          <mxGeometry x="1" relative="1" as="geometry">
            <mxPoint x="-10" y="-29.93" as="offset" />
          </mxGeometry>
        </mxCell>
        <mxCell id="lzLQNb4hXkD1QpoMvITh-231" value="" style="endArrow=open;startArrow=cross;endFill=0;startFill=0;endSize=8;startSize=10;html=1;labelBackgroundColor=none;fontSize=15;exitX=0;exitY=0.5;exitDx=0;exitDy=0;entryX=0.5;entryY=0;entryDx=0;entryDy=0;edgeStyle=orthogonalEdgeStyle;" parent="1" source="lzLQNb4hXkD1QpoMvITh-57" target="lzLQNb4hXkD1QpoMvITh-142" edge="1">
          <mxGeometry width="160" relative="1" as="geometry">
            <mxPoint x="383" y="-85" as="sourcePoint" />
            <mxPoint x="883" y="-30" as="targetPoint" />
            <Array as="points">
              <mxPoint x="298" y="-435" />
              <mxPoint x="298" y="-450" />
              <mxPoint x="173" y="-450" />
            </Array>
          </mxGeometry>
        </mxCell>
        <mxCell id="lzLQNb4hXkD1QpoMvITh-274" value="ShiftType" style="swimlane;fontStyle=1;align=center;verticalAlign=top;childLayout=stackLayout;horizontal=1;startSize=26;horizontalStack=0;resizeParent=1;resizeParentMax=0;resizeLast=0;collapsible=1;marginBottom=0;fontSize=15;gradientColor=#ffffff;swimlaneFillColor=#ffffff;" parent="1" vertex="1">
          <mxGeometry x="648" y="-320" width="180" height="78" as="geometry" />
        </mxCell>
        <mxCell id="lzLQNb4hXkD1QpoMvITh-278" value="- manning: map&lt;Role, int&gt;" style="text;strokeColor=none;fillColor=none;align=left;verticalAlign=top;spacingLeft=4;spacingRight=4;overflow=hidden;rotatable=0;points=[[0,0.5],[1,0.5]];portConstraint=eastwest;" parent="lzLQNb4hXkD1QpoMvITh-274" vertex="1">
          <mxGeometry y="26" width="180" height="26" as="geometry" />
        </mxCell>
        <mxCell id="lzLQNb4hXkD1QpoMvITh-276" value="- type: string" style="text;strokeColor=none;fillColor=none;align=left;verticalAlign=top;spacingLeft=4;spacingRight=4;overflow=hidden;rotatable=0;points=[[0,0.5],[1,0.5]];portConstraint=eastwest;" parent="lzLQNb4hXkD1QpoMvITh-274" vertex="1">
          <mxGeometry y="52" width="180" height="26" as="geometry" />
        </mxCell>
        <mxCell id="lzLQNb4hXkD1QpoMvITh-330" value="facade" style="shape=folder;fontStyle=1;spacingTop=4;tabWidth=140;tabHeight=30;tabPosition=left;html=1;labelBackgroundColor=none;fontSize=16;align=left;verticalAlign=top;fillColor=#d5e8d4;strokeColor=#82b366;" parent="1" vertex="1">
          <mxGeometry x="60" y="-1390" width="840" height="720" as="geometry" />
        </mxCell>
        <mxCell id="lzLQNb4hXkD1QpoMvITh-331" value="has" style="endArrow=open;endSize=12;html=1;labelBackgroundColor=none;fontSize=15;entryX=0.5;entryY=0;entryDx=0;entryDy=0;edgeStyle=orthogonalEdgeStyle;exitX=1;exitY=0.5;exitDx=0;exitDy=0;startArrow=cross;startFill=0;" parent="1" source="lzLQNb4hXkD1QpoMvITh-120" target="lzLQNb4hXkD1QpoMvITh-274" edge="1">
          <mxGeometry x="0.3718" y="10" width="160" relative="1" as="geometry">
            <mxPoint x="848" y="-359" as="sourcePoint" />
            <mxPoint x="987" y="204.5" as="targetPoint" />
            <Array as="points">
              <mxPoint x="848" y="-369" />
              <mxPoint x="848" y="-340" />
              <mxPoint x="738" y="-340" />
            </Array>
            <mxPoint as="offset" />
          </mxGeometry>
        </mxCell>
        <mxCell id="lzLQNb4hXkD1QpoMvITh-350" value="ShiftController" style="swimlane;fontStyle=1;align=center;verticalAlign=top;childLayout=stackLayout;horizontal=1;startSize=26;horizontalStack=0;resizeParent=1;resizeParentMax=0;resizeLast=0;collapsible=1;marginBottom=0;fontSize=15;gradientColor=#ffffff;swimlaneFillColor=#ffffff;" parent="1" vertex="1">
          <mxGeometry x="648" y="-590" width="180" height="34" as="geometry" />
        </mxCell>
        <mxCell id="lzLQNb4hXkD1QpoMvITh-56" value="Employee" style="swimlane;fontStyle=1;align=center;verticalAlign=top;childLayout=stackLayout;horizontal=1;startSize=26;horizontalStack=0;resizeParent=1;resizeParentMax=0;resizeLast=0;collapsible=1;marginBottom=0;fontSize=15;gradientColor=#ffffff;swimlaneFillColor=#ffffff;" parent="1" vertex="1">
          <mxGeometry x="338" y="-474" width="180" height="104" as="geometry" />
        </mxCell>
        <mxCell id="lzLQNb4hXkD1QpoMvITh-57" value="- role : Role" style="text;strokeColor=none;fillColor=none;align=left;verticalAlign=top;spacingLeft=4;spacingRight=4;overflow=hidden;rotatable=0;points=[[0,0.5],[1,0.5]];portConstraint=eastwest;" parent="lzLQNb4hXkD1QpoMvITh-56" vertex="1">
          <mxGeometry y="26" width="180" height="26" as="geometry" />
        </mxCell>
        <mxCell id="lzLQNb4hXkD1QpoMvITh-58" value="- ID : int&#xa;" style="text;strokeColor=none;fillColor=none;align=left;verticalAlign=top;spacingLeft=4;spacingRight=4;overflow=hidden;rotatable=0;points=[[0,0.5],[1,0.5]];portConstraint=eastwest;" parent="lzLQNb4hXkD1QpoMvITh-56" vertex="1">
          <mxGeometry y="52" width="180" height="26" as="geometry" />
        </mxCell>
        <mxCell id="lzLQNb4hXkD1QpoMvITh-131" value="- transactionDate : Date&#xa;" style="text;strokeColor=none;fillColor=none;align=left;verticalAlign=top;spacingLeft=4;spacingRight=4;overflow=hidden;rotatable=0;points=[[0,0.5],[1,0.5]];portConstraint=eastwest;" parent="lzLQNb4hXkD1QpoMvITh-56" vertex="1">
          <mxGeometry y="78" width="180" height="26" as="geometry" />
        </mxCell>
        <mxCell id="lzLQNb4hXkD1QpoMvITh-42" value="EmployeesController" style="swimlane;fontStyle=1;align=center;verticalAlign=top;childLayout=stackLayout;horizontal=1;startSize=26;horizontalStack=0;resizeParent=1;resizeParentMax=0;resizeLast=0;collapsible=1;marginBottom=0;fontSize=15;gradientColor=#ffffff;swimlaneFillColor=#ffffff;" parent="1" vertex="1">
          <mxGeometry x="338" y="-570" width="180" height="34" as="geometry" />
        </mxCell>
        <mxCell id="lzLQNb4hXkD1QpoMvITh-132" value="BankAccountInfo" style="swimlane;fontStyle=1;align=center;verticalAlign=top;childLayout=stackLayout;horizontal=1;startSize=26;horizontalStack=0;resizeParent=1;resizeParentMax=0;resizeLast=0;collapsible=1;marginBottom=0;fontSize=15;gradientColor=#ffffff;swimlaneFillColor=#ffffff;" parent="1" vertex="1">
          <mxGeometry x="93" y="-570" width="160" height="104" as="geometry" />
        </mxCell>
        <mxCell id="lzLQNb4hXkD1QpoMvITh-133" value="- accountNumber : int" style="text;strokeColor=none;fillColor=none;align=left;verticalAlign=top;spacingLeft=4;spacingRight=4;overflow=hidden;rotatable=0;points=[[0,0.5],[1,0.5]];portConstraint=eastwest;" parent="lzLQNb4hXkD1QpoMvITh-132" vertex="1">
          <mxGeometry y="26" width="160" height="26" as="geometry" />
        </mxCell>
        <mxCell id="lzLQNb4hXkD1QpoMvITh-134" value="- bankBranch: int&#xa;" style="text;strokeColor=none;fillColor=none;align=left;verticalAlign=top;spacingLeft=4;spacingRight=4;overflow=hidden;rotatable=0;points=[[0,0.5],[1,0.5]];portConstraint=eastwest;" parent="lzLQNb4hXkD1QpoMvITh-132" vertex="1">
          <mxGeometry y="52" width="160" height="26" as="geometry" />
        </mxCell>
        <mxCell id="lzLQNb4hXkD1QpoMvITh-135" value="- bank: string&#xa;" style="text;strokeColor=none;fillColor=none;align=left;verticalAlign=top;spacingLeft=4;spacingRight=4;overflow=hidden;rotatable=0;points=[[0,0.5],[1,0.5]];portConstraint=eastwest;" parent="lzLQNb4hXkD1QpoMvITh-132" vertex="1">
          <mxGeometry y="78" width="160" height="26" as="geometry" />
        </mxCell>
        <mxCell id="lzLQNb4hXkD1QpoMvITh-195" value="&lt;p style=&quot;margin: 0px ; margin-top: 4px ; text-align: center&quot;&gt;&lt;i&gt;&amp;lt;&amp;lt;enumeration&amp;gt;&amp;gt;&lt;/i&gt;&lt;br&gt;&lt;b&gt;Role&lt;/b&gt;&lt;/p&gt;&lt;hr size=&quot;1&quot;&gt;&lt;p style=&quot;margin: 0px ; margin-left: 4px&quot;&gt;branchManager&lt;/p&gt;&lt;p style=&quot;margin: 0px ; margin-left: 4px&quot;&gt;branchManagerAssistent&lt;/p&gt;&lt;p style=&quot;margin: 0px ; margin-left: 4px&quot;&gt;humanResourcesManager&lt;br&gt;&lt;/p&gt;&lt;p style=&quot;margin: 0px ; margin-left: 4px&quot;&gt;cashier&lt;/p&gt;&lt;p style=&quot;margin: 0px ; margin-left: 4px&quot;&gt;guard&lt;/p&gt;&lt;p style=&quot;margin: 0px ; margin-left: 4px&quot;&gt;usher&lt;/p&gt;&lt;p style=&quot;margin: 0px ; margin-left: 4px&quot;&gt;storeKeeper&lt;/p&gt;" style="verticalAlign=top;align=left;overflow=fill;fontSize=12;fontFamily=Helvetica;html=1;labelBackgroundColor=none;gradientColor=#ffffff;" parent="1" vertex="1">
          <mxGeometry x="348" y="-320" width="160" height="152.5" as="geometry" />
        </mxCell>
        <mxCell id="lzLQNb4hXkD1QpoMvITh-142" value="TermsOfEmployment" style="swimlane;fontStyle=1;align=center;verticalAlign=top;childLayout=stackLayout;horizontal=1;startSize=26;horizontalStack=0;resizeParent=1;resizeParentMax=0;resizeLast=0;collapsible=1;marginBottom=0;fontSize=15;gradientColor=#ffffff;swimlaneFillColor=#ffffff;" parent="1" vertex="1">
          <mxGeometry x="93" y="-430" width="160" height="130" as="geometry" />
        </mxCell>
        <mxCell id="lzLQNb4hXkD1QpoMvITh-143" value="- salary : int" style="text;strokeColor=none;fillColor=none;align=left;verticalAlign=top;spacingLeft=4;spacingRight=4;overflow=hidden;rotatable=0;points=[[0,0.5],[1,0.5]];portConstraint=eastwest;" parent="lzLQNb4hXkD1QpoMvITh-142" vertex="1">
          <mxGeometry y="26" width="160" height="26" as="geometry" />
        </mxCell>
        <mxCell id="lzLQNb4hXkD1QpoMvITh-144" value="- educationFund : int&#xa;" style="text;strokeColor=none;fillColor=none;align=left;verticalAlign=top;spacingLeft=4;spacingRight=4;overflow=hidden;rotatable=0;points=[[0,0.5],[1,0.5]];portConstraint=eastwest;" parent="lzLQNb4hXkD1QpoMvITh-142" vertex="1">
          <mxGeometry y="52" width="160" height="26" as="geometry" />
        </mxCell>
        <mxCell id="lzLQNb4hXkD1QpoMvITh-145" value="- sickDays : int&#xa;" style="text;strokeColor=none;fillColor=none;align=left;verticalAlign=top;spacingLeft=4;spacingRight=4;overflow=hidden;rotatable=0;points=[[0,0.5],[1,0.5]];portConstraint=eastwest;" parent="lzLQNb4hXkD1QpoMvITh-142" vertex="1">
          <mxGeometry y="78" width="160" height="26" as="geometry" />
        </mxCell>
        <mxCell id="lzLQNb4hXkD1QpoMvITh-147" value="- daysOff : int&#xa;" style="text;strokeColor=none;fillColor=none;align=left;verticalAlign=top;spacingLeft=4;spacingRight=4;overflow=hidden;rotatable=0;points=[[0,0.5],[1,0.5]];portConstraint=eastwest;" parent="lzLQNb4hXkD1QpoMvITh-142" vertex="1">
          <mxGeometry y="104" width="160" height="26" as="geometry" />
        </mxCell>
        <mxCell id="lzLQNb4hXkD1QpoMvITh-209" value="Constraint" style="swimlane;fontStyle=1;align=center;verticalAlign=top;childLayout=stackLayout;horizontal=1;startSize=26;horizontalStack=0;resizeParent=1;resizeParentMax=0;resizeLast=0;collapsible=1;marginBottom=0;fontSize=15;gradientColor=#ffffff;swimlaneFillColor=#ffffff;" parent="1" vertex="1">
          <mxGeometry x="103" y="-260" width="150" height="130" as="geometry" />
        </mxCell>
        <mxCell id="lzLQNb4hXkD1QpoMvITh-210" value="+ date: Date" style="text;strokeColor=none;fillColor=none;align=left;verticalAlign=top;spacingLeft=4;spacingRight=4;overflow=hidden;rotatable=0;points=[[0,0.5],[1,0.5]];portConstraint=eastwest;" parent="lzLQNb4hXkD1QpoMvITh-209" vertex="1">
          <mxGeometry y="26" width="150" height="26" as="geometry" />
        </mxCell>
        <mxCell id="lzLQNb4hXkD1QpoMvITh-211" value="+ morningShift: bool" style="text;strokeColor=none;fillColor=none;align=left;verticalAlign=top;spacingLeft=4;spacingRight=4;overflow=hidden;rotatable=0;points=[[0,0.5],[1,0.5]];portConstraint=eastwest;" parent="lzLQNb4hXkD1QpoMvITh-209" vertex="1">
          <mxGeometry y="52" width="150" height="26" as="geometry" />
        </mxCell>
        <mxCell id="lzLQNb4hXkD1QpoMvITh-414" value="+ eveningShift: bool" style="text;strokeColor=none;fillColor=none;align=left;verticalAlign=top;spacingLeft=4;spacingRight=4;overflow=hidden;rotatable=0;points=[[0,0.5],[1,0.5]];portConstraint=eastwest;" parent="lzLQNb4hXkD1QpoMvITh-209" vertex="1">
          <mxGeometry y="78" width="150" height="26" as="geometry" />
        </mxCell>
        <mxCell id="lzLQNb4hXkD1QpoMvITh-214" value="+ reason: string" style="text;strokeColor=none;fillColor=none;align=left;verticalAlign=top;spacingLeft=4;spacingRight=4;overflow=hidden;rotatable=0;points=[[0,0.5],[1,0.5]];portConstraint=eastwest;" parent="lzLQNb4hXkD1QpoMvITh-209" vertex="1">
          <mxGeometry y="104" width="150" height="26" as="geometry" />
        </mxCell>
        <mxCell id="lzLQNb4hXkD1QpoMvITh-370" value="DalEmployee" style="swimlane;fontStyle=1;align=center;verticalAlign=top;childLayout=stackLayout;horizontal=1;startSize=26;horizontalStack=0;resizeParent=1;resizeParentMax=0;resizeLast=0;collapsible=1;marginBottom=0;fontSize=15;gradientColor=#ffffff;swimlaneFillColor=#ffffff;" parent="1" vertex="1">
          <mxGeometry x="490" y="-20" width="340" height="156" as="geometry" />
        </mxCell>
        <mxCell id="lzLQNb4hXkD1QpoMvITh-371" value="- role : Role" style="text;strokeColor=none;fillColor=none;align=left;verticalAlign=top;spacingLeft=4;spacingRight=4;overflow=hidden;rotatable=0;points=[[0,0.5],[1,0.5]];portConstraint=eastwest;" parent="lzLQNb4hXkD1QpoMvITh-370" vertex="1">
          <mxGeometry y="26" width="340" height="26" as="geometry" />
        </mxCell>
        <mxCell id="lzLQNb4hXkD1QpoMvITh-372" value="- ID : int&#xa;" style="text;strokeColor=none;fillColor=none;align=left;verticalAlign=top;spacingLeft=4;spacingRight=4;overflow=hidden;rotatable=0;points=[[0,0.5],[1,0.5]];portConstraint=eastwest;" parent="lzLQNb4hXkD1QpoMvITh-370" vertex="1">
          <mxGeometry y="52" width="340" height="26" as="geometry" />
        </mxCell>
        <mxCell id="lzLQNb4hXkD1QpoMvITh-373" value="- terms : TermsOfEmployment&#xa;" style="text;strokeColor=none;fillColor=none;align=left;verticalAlign=top;spacingLeft=4;spacingRight=4;overflow=hidden;rotatable=0;points=[[0,0.5],[1,0.5]];portConstraint=eastwest;" parent="lzLQNb4hXkD1QpoMvITh-370" vertex="1">
          <mxGeometry y="78" width="340" height="26" as="geometry" />
        </mxCell>
        <mxCell id="lzLQNb4hXkD1QpoMvITh-374" value="- transactionDate : Date&#xa;" style="text;strokeColor=none;fillColor=none;align=left;verticalAlign=top;spacingLeft=4;spacingRight=4;overflow=hidden;rotatable=0;points=[[0,0.5],[1,0.5]];portConstraint=eastwest;" parent="lzLQNb4hXkD1QpoMvITh-370" vertex="1">
          <mxGeometry y="104" width="340" height="26" as="geometry" />
        </mxCell>
        <mxCell id="lzLQNb4hXkD1QpoMvITh-375" value="- bank : BankAccountInfo &#xa;" style="text;strokeColor=none;fillColor=none;align=left;verticalAlign=top;spacingLeft=4;spacingRight=4;overflow=hidden;rotatable=0;points=[[0,0.5],[1,0.5]];portConstraint=eastwest;" parent="lzLQNb4hXkD1QpoMvITh-370" vertex="1">
          <mxGeometry y="130" width="340" height="26" as="geometry" />
        </mxCell>
        <mxCell id="lzLQNb4hXkD1QpoMvITh-377" value="DalShift" style="swimlane;fontStyle=1;align=center;verticalAlign=top;childLayout=stackLayout;horizontal=1;startSize=26;horizontalStack=0;resizeParent=1;resizeParentMax=0;resizeLast=0;collapsible=1;marginBottom=0;fontSize=15;gradientColor=#ffffff;swimlaneFillColor=#ffffff;" parent="1" vertex="1">
          <mxGeometry x="270" y="-20" width="200" height="104" as="geometry" />
        </mxCell>
        <mxCell id="lzLQNb4hXkD1QpoMvITh-378" value="- date: Date" style="text;strokeColor=none;fillColor=none;align=left;verticalAlign=top;spacingLeft=4;spacingRight=4;overflow=hidden;rotatable=0;points=[[0,0.5],[1,0.5]];portConstraint=eastwest;" parent="lzLQNb4hXkD1QpoMvITh-377" vertex="1">
          <mxGeometry y="26" width="200" height="26" as="geometry" />
        </mxCell>
        <mxCell id="lzLQNb4hXkD1QpoMvITh-379" value="- type: ShiftType" style="text;strokeColor=none;fillColor=none;align=left;verticalAlign=top;spacingLeft=4;spacingRight=4;overflow=hidden;rotatable=0;points=[[0,0.5],[1,0.5]];portConstraint=eastwest;" parent="lzLQNb4hXkD1QpoMvITh-377" vertex="1">
          <mxGeometry y="52" width="200" height="26" as="geometry" />
        </mxCell>
        <mxCell id="lzLQNb4hXkD1QpoMvITh-380" value="- manning: map&lt;Role, int[]&gt;" style="text;strokeColor=none;fillColor=none;align=left;verticalAlign=top;spacingLeft=4;spacingRight=4;overflow=hidden;rotatable=0;points=[[0,0.5],[1,0.5]];portConstraint=eastwest;" parent="lzLQNb4hXkD1QpoMvITh-377" vertex="1">
          <mxGeometry y="78" width="200" height="26" as="geometry" />
        </mxCell>
        <mxCell id="lzLQNb4hXkD1QpoMvITh-392" value="DalWeeklyShiftSchedule" style="swimlane;fontStyle=1;align=center;verticalAlign=top;childLayout=stackLayout;horizontal=1;startSize=26;horizontalStack=0;resizeParent=1;resizeParentMax=0;resizeLast=0;collapsible=1;marginBottom=0;fontSize=15;gradientColor=#ffffff;swimlaneFillColor=#ffffff;" parent="1" vertex="1">
          <mxGeometry x="50" y="-20" width="200" height="78" as="geometry" />
        </mxCell>
        <mxCell id="lzLQNb4hXkD1QpoMvITh-393" value="+ shifts: Shift[][]" style="text;strokeColor=none;fillColor=none;align=left;verticalAlign=top;spacingLeft=4;spacingRight=4;overflow=hidden;rotatable=0;points=[[0,0.5],[1,0.5]];portConstraint=eastwest;" parent="lzLQNb4hXkD1QpoMvITh-392" vertex="1">
          <mxGeometry y="26" width="200" height="26" as="geometry" />
        </mxCell>
        <mxCell id="lzLQNb4hXkD1QpoMvITh-394" value="+ startingDate: Date" style="text;strokeColor=none;fillColor=none;align=left;verticalAlign=top;spacingLeft=4;spacingRight=4;overflow=hidden;rotatable=0;points=[[0,0.5],[1,0.5]];portConstraint=eastwest;" parent="lzLQNb4hXkD1QpoMvITh-392" vertex="1">
          <mxGeometry y="52" width="200" height="26" as="geometry" />
        </mxCell>
        <mxCell id="lzLQNb4hXkD1QpoMvITh-400" value="PresentationController" style="swimlane;fontStyle=1;align=center;verticalAlign=top;childLayout=stackLayout;horizontal=1;startSize=26;horizontalStack=0;resizeParent=1;resizeParentMax=0;resizeLast=0;collapsible=1;marginBottom=0;fontSize=11;" parent="1" vertex="1">
          <mxGeometry x="280" y="-1500" width="140" height="27" as="geometry">
            <mxRectangle x="2985" y="-1900" width="150" height="26" as="alternateBounds" />
          </mxGeometry>
        </mxCell>
        <mxCell id="lzLQNb4hXkD1QpoMvITh-403" value="" style="line;strokeWidth=2;align=left;verticalAlign=middle;spacingTop=-1;spacingLeft=3;spacingRight=3;rotatable=0;labelPosition=right;points=[];portConstraint=eastwest;fillColor=none;perimeterSpacing=0;" parent="lzLQNb4hXkD1QpoMvITh-400" vertex="1">
          <mxGeometry y="26" width="140" height="1" as="geometry" />
        </mxCell>
        <mxCell id="lzLQNb4hXkD1QpoMvITh-407" value="MenuPrinter" style="swimlane;fontStyle=1;align=center;verticalAlign=top;childLayout=stackLayout;horizontal=1;startSize=26;horizontalStack=0;resizeParent=1;resizeParentMax=0;resizeLast=0;collapsible=1;marginBottom=0;fontSize=11;" parent="1" vertex="1">
          <mxGeometry x="440" y="-1500" width="120" height="27" as="geometry">
            <mxRectangle x="3311" y="-1597.5" width="60" height="26" as="alternateBounds" />
          </mxGeometry>
        </mxCell>
        <mxCell id="lzLQNb4hXkD1QpoMvITh-408" value="" style="line;strokeWidth=2;align=left;verticalAlign=middle;spacingTop=-1;spacingLeft=3;spacingRight=3;rotatable=0;labelPosition=right;points=[];portConstraint=eastwest;fillColor=none;perimeterSpacing=0;" parent="lzLQNb4hXkD1QpoMvITh-407" vertex="1">
          <mxGeometry y="26" width="120" height="1" as="geometry" />
        </mxCell>
        <mxCell id="lzLQNb4hXkD1QpoMvITh-426" value="Response&lt;T: FacadeObject&gt;" style="swimlane;fontStyle=1;align=center;verticalAlign=top;childLayout=stackLayout;horizontal=1;startSize=26;horizontalStack=0;resizeParent=1;resizeParentMax=0;resizeLast=0;collapsible=1;marginBottom=0;fontSize=11;" parent="1" vertex="1">
          <mxGeometry x="90" y="-796.5" width="180" height="79" as="geometry" />
        </mxCell>
        <mxCell id="lzLQNb4hXkD1QpoMvITh-427" value="- data: T" style="text;align=left;verticalAlign=top;spacingLeft=4;spacingRight=4;overflow=hidden;rotatable=0;points=[[0,0.5],[1,0.5]];portConstraint=eastwest;fillColor=#ffffff;" parent="lzLQNb4hXkD1QpoMvITh-426" vertex="1">
          <mxGeometry y="26" width="180" height="26" as="geometry" />
        </mxCell>
        <mxCell id="lzLQNb4hXkD1QpoMvITh-428" value="" style="line;strokeWidth=2;align=left;verticalAlign=middle;spacingTop=-1;spacingLeft=3;spacingRight=3;rotatable=0;labelPosition=right;points=[];portConstraint=eastwest;fillColor=none;perimeterSpacing=0;" parent="lzLQNb4hXkD1QpoMvITh-426" vertex="1">
          <mxGeometry y="52" width="180" height="1" as="geometry" />
        </mxCell>
        <mxCell id="lzLQNb4hXkD1QpoMvITh-429" value="+ getData(): T" style="text;align=left;verticalAlign=top;spacingLeft=4;spacingRight=4;overflow=hidden;rotatable=0;points=[[0,0.5],[1,0.5]];portConstraint=eastwest;fillColor=#ffffff;" parent="lzLQNb4hXkD1QpoMvITh-426" vertex="1">
          <mxGeometry y="53" width="180" height="26" as="geometry" />
        </mxCell>
        <mxCell id="lzLQNb4hXkD1QpoMvITh-430" value="Response" style="swimlane;fontStyle=1;align=center;verticalAlign=top;childLayout=stackLayout;horizontal=1;startSize=26;horizontalStack=0;resizeParent=1;resizeParentMax=0;resizeLast=0;collapsible=1;marginBottom=0;fontSize=11;" parent="1" vertex="1">
          <mxGeometry x="90" y="-899.5" width="180" height="79" as="geometry" />
        </mxCell>
        <mxCell id="lzLQNb4hXkD1QpoMvITh-431" value="- excepted: boolean" style="text;align=left;verticalAlign=top;spacingLeft=4;spacingRight=4;overflow=hidden;rotatable=0;points=[[0,0.5],[1,0.5]];portConstraint=eastwest;fillColor=#ffffff;" parent="lzLQNb4hXkD1QpoMvITh-430" vertex="1">
          <mxGeometry y="26" width="180" height="26" as="geometry" />
        </mxCell>
        <mxCell id="lzLQNb4hXkD1QpoMvITh-432" value="- exceprionMessage: String" style="text;align=left;verticalAlign=top;spacingLeft=4;spacingRight=4;overflow=hidden;rotatable=0;points=[[0,0.5],[1,0.5]];portConstraint=eastwest;fillColor=#ffffff;" parent="lzLQNb4hXkD1QpoMvITh-430" vertex="1">
          <mxGeometry y="52" width="180" height="26" as="geometry" />
        </mxCell>
        <mxCell id="lzLQNb4hXkD1QpoMvITh-433" value="" style="line;strokeWidth=2;align=left;verticalAlign=middle;spacingTop=-1;spacingLeft=3;spacingRight=3;rotatable=0;labelPosition=right;points=[];portConstraint=eastwest;fillColor=none;perimeterSpacing=0;" parent="lzLQNb4hXkD1QpoMvITh-430" vertex="1">
          <mxGeometry y="78" width="180" height="1" as="geometry" />
        </mxCell>
        <mxCell id="lzLQNb4hXkD1QpoMvITh-434" value="&lt;span style=&quot;&quot;&gt;Extends&lt;/span&gt;" style="endArrow=block;endSize=16;endFill=0;html=1;entryX=0.5;entryY=1;entryDx=0;entryDy=0;exitX=0.5;exitY=0;exitDx=0;exitDy=0;labelBackgroundColor=none;" parent="1" source="lzLQNb4hXkD1QpoMvITh-426" target="lzLQNb4hXkD1QpoMvITh-430" edge="1">
          <mxGeometry x="-0.2157" y="30" width="160" relative="1" as="geometry">
            <mxPoint x="846" y="-689.5" as="sourcePoint" />
            <mxPoint x="1006" y="-689.5" as="targetPoint" />
            <mxPoint as="offset" />
          </mxGeometry>
        </mxCell>
        <mxCell id="lzLQNb4hXkD1QpoMvITh-512" value="StringConverter" style="swimlane;fontStyle=1;align=center;verticalAlign=top;childLayout=stackLayout;horizontal=1;startSize=26;horizontalStack=0;resizeParent=1;resizeParentMax=0;resizeLast=0;collapsible=1;marginBottom=0;fontSize=11;" parent="1" vertex="1">
          <mxGeometry x="50" y="-1583.5" width="160" height="27" as="geometry" />
        </mxCell>
        <mxCell id="lzLQNb4hXkD1QpoMvITh-515" value="" style="line;strokeWidth=2;align=left;verticalAlign=middle;spacingTop=-1;spacingLeft=3;spacingRight=3;rotatable=0;labelPosition=right;points=[];portConstraint=eastwest;fillColor=none;perimeterSpacing=0;" parent="lzLQNb4hXkD1QpoMvITh-512" vertex="1">
          <mxGeometry y="26" width="160" height="1" as="geometry" />
        </mxCell>
        <mxCell id="lzLQNb4hXkD1QpoMvITh-525" value="" style="endArrow=open;startArrow=cross;endFill=0;startFill=0;endSize=8;startSize=10;html=1;labelBackgroundColor=none;fontSize=16;exitX=0.5;exitY=1;exitDx=0;exitDy=0;entryX=0.5;entryY=0;entryDx=0;entryDy=0;edgeStyle=orthogonalEdgeStyle;" parent="1" source="lzLQNb4hXkD1QpoMvITh-630" target="lzLQNb4hXkD1QpoMvITh-42" edge="1">
          <mxGeometry width="160" relative="1" as="geometry">
            <mxPoint x="306" y="-730" as="sourcePoint" />
            <mxPoint x="810" y="-800" as="targetPoint" />
            <Array as="points">
              <mxPoint x="450" y="-600" />
              <mxPoint x="428" y="-600" />
            </Array>
          </mxGeometry>
        </mxCell>
        <mxCell id="lzLQNb4hXkD1QpoMvITh-526" value="" style="endArrow=open;startArrow=cross;endFill=0;startFill=0;endSize=8;startSize=10;html=1;labelBackgroundColor=none;fontSize=16;exitX=0.5;exitY=1;exitDx=0;exitDy=0;entryX=0.5;entryY=0;entryDx=0;entryDy=0;edgeStyle=orthogonalEdgeStyle;" parent="1" source="lzLQNb4hXkD1QpoMvITh-628" target="lzLQNb4hXkD1QpoMvITh-350" edge="1">
          <mxGeometry width="160" relative="1" as="geometry">
            <mxPoint x="750" y="-730" as="sourcePoint" />
            <mxPoint x="810" y="-850" as="targetPoint" />
            <Array as="points">
              <mxPoint x="738" y="-680" />
              <mxPoint x="738" y="-680" />
            </Array>
          </mxGeometry>
        </mxCell>
        <mxCell id="lzLQNb4hXkD1QpoMvITh-527" value="FacadeService" style="swimlane;fontStyle=1;align=center;verticalAlign=top;childLayout=stackLayout;horizontal=1;startSize=26;horizontalStack=0;resizeParent=1;resizeParentMax=0;resizeLast=0;collapsible=1;marginBottom=0;fontSize=11;" parent="1" vertex="1">
          <mxGeometry x="530" y="-717.5" width="130" height="27" as="geometry" />
        </mxCell>
        <mxCell id="lzLQNb4hXkD1QpoMvITh-530" value="" style="line;strokeWidth=2;align=left;verticalAlign=middle;spacingTop=-1;spacingLeft=3;spacingRight=3;rotatable=0;labelPosition=right;points=[];portConstraint=eastwest;fillColor=none;perimeterSpacing=0;" parent="lzLQNb4hXkD1QpoMvITh-527" vertex="1">
          <mxGeometry y="26" width="130" height="1" as="geometry" />
        </mxCell>
        <mxCell id="lzLQNb4hXkD1QpoMvITh-533" value="" style="endArrow=open;startArrow=cross;endFill=0;startFill=0;endSize=8;startSize=10;html=1;labelBackgroundColor=none;fontSize=16;entryX=0.5;entryY=0;entryDx=0;entryDy=0;exitX=0.75;exitY=0;exitDx=0;exitDy=0;edgeStyle=orthogonalEdgeStyle;" parent="1" source="lzLQNb4hXkD1QpoMvITh-527" target="lzLQNb4hXkD1QpoMvITh-628" edge="1">
          <mxGeometry width="160" relative="1" as="geometry">
            <mxPoint x="570" y="-1120" as="sourcePoint" />
            <mxPoint x="800" y="-730" as="targetPoint" />
            <Array as="points">
              <mxPoint x="627" y="-750" />
              <mxPoint x="740" y="-750" />
            </Array>
          </mxGeometry>
        </mxCell>
        <mxCell id="lzLQNb4hXkD1QpoMvITh-534" value="Use" style="endArrow=open;endSize=12;dashed=1;html=1;labelBackgroundColor=none;fontSize=16;exitX=0.5;exitY=0;exitDx=0;exitDy=0;entryX=0.5;entryY=0;entryDx=0;entryDy=0;edgeStyle=orthogonalEdgeStyle;" parent="1" source="lzLQNb4hXkD1QpoMvITh-632" target="lzLQNb4hXkD1QpoMvITh-400" edge="1">
          <mxGeometry x="-0.3699" y="-9" width="160" relative="1" as="geometry">
            <mxPoint x="120" y="-1498.9999999999998" as="sourcePoint" />
            <mxPoint x="640" y="-1020" as="targetPoint" />
            <Array as="points">
              <mxPoint x="210" y="-1540" />
              <mxPoint x="350" y="-1540" />
            </Array>
            <mxPoint as="offset" />
          </mxGeometry>
        </mxCell>
        <mxCell id="lzLQNb4hXkD1QpoMvITh-535" value="Use" style="endArrow=open;endSize=12;dashed=1;html=1;labelBackgroundColor=none;fontSize=16;exitX=0.5;exitY=0;exitDx=0;exitDy=0;entryX=0.5;entryY=0;entryDx=0;entryDy=0;edgeStyle=orthogonalEdgeStyle;" parent="1" source="lzLQNb4hXkD1QpoMvITh-400" target="lzLQNb4hXkD1QpoMvITh-407" edge="1">
          <mxGeometry x="-0.0905" y="-10" width="160" relative="1" as="geometry">
            <mxPoint x="130" y="-1319" as="sourcePoint" />
            <mxPoint x="355" y="-1320" as="targetPoint" />
            <Array as="points">
              <mxPoint x="345" y="-1500" />
              <mxPoint x="345" y="-1540" />
              <mxPoint x="500" y="-1540" />
            </Array>
            <mxPoint as="offset" />
          </mxGeometry>
        </mxCell>
        <mxCell id="lzLQNb4hXkD1QpoMvITh-536" value="" style="endArrow=open;startArrow=cross;endFill=0;startFill=0;endSize=8;startSize=10;html=1;labelBackgroundColor=none;fontSize=16;exitX=0.5;exitY=1;exitDx=0;exitDy=0;edgeStyle=orthogonalEdgeStyle;entryX=0.25;entryY=0;entryDx=0;entryDy=0;" parent="1" source="lzLQNb4hXkD1QpoMvITh-400" target="lzLQNb4hXkD1QpoMvITh-527" edge="1">
          <mxGeometry width="160" relative="1" as="geometry">
            <mxPoint x="480" y="-1230" as="sourcePoint" />
            <mxPoint x="562" y="-760" as="targetPoint" />
            <Array as="points">
              <mxPoint x="350" y="-1330" />
              <mxPoint x="840" y="-1330" />
              <mxPoint x="840" y="-890" />
              <mxPoint x="563" y="-890" />
            </Array>
          </mxGeometry>
        </mxCell>
        <mxCell id="lzLQNb4hXkD1QpoMvITh-554" value="facadeObject" style="shape=folder;fontStyle=1;spacingTop=4;tabWidth=115;tabHeight=30;tabPosition=left;html=1;labelBackgroundColor=none;fontSize=16;align=left;verticalAlign=top;fillColor=none;" parent="1" vertex="1">
          <mxGeometry x="75" y="-1340" width="715" height="430" as="geometry" />
        </mxCell>
        <mxCell id="lzLQNb4hXkD1QpoMvITh-555" value="FacadeShift" style="swimlane;fontStyle=1;align=center;verticalAlign=top;childLayout=stackLayout;horizontal=1;startSize=26;horizontalStack=0;resizeParent=1;resizeParentMax=0;resizeLast=0;collapsible=1;marginBottom=0;fontSize=15;gradientColor=#ffffff;swimlaneFillColor=#ffffff;" parent="1" vertex="1">
          <mxGeometry x="550" y="-1000" width="210" height="78" as="geometry" />
        </mxCell>
        <mxCell id="lzLQNb4hXkD1QpoMvITh-556" value="- date: Date" style="text;strokeColor=none;fillColor=none;align=left;verticalAlign=top;spacingLeft=4;spacingRight=4;overflow=hidden;rotatable=0;points=[[0,0.5],[1,0.5]];portConstraint=eastwest;" parent="lzLQNb4hXkD1QpoMvITh-555" vertex="1">
          <mxGeometry y="26" width="210" height="26" as="geometry" />
        </mxCell>
        <mxCell id="lzLQNb4hXkD1QpoMvITh-558" value="- manning: map&lt;Role, int[]&gt;" style="text;strokeColor=none;fillColor=none;align=left;verticalAlign=top;spacingLeft=4;spacingRight=4;overflow=hidden;rotatable=0;points=[[0,0.5],[1,0.5]];portConstraint=eastwest;" parent="lzLQNb4hXkD1QpoMvITh-555" vertex="1">
          <mxGeometry y="52" width="210" height="26" as="geometry" />
        </mxCell>
        <mxCell id="lzLQNb4hXkD1QpoMvITh-562" value="FacadeWeeklyShiftSchedule" style="swimlane;fontStyle=1;align=center;verticalAlign=top;childLayout=stackLayout;horizontal=1;startSize=26;horizontalStack=0;resizeParent=1;resizeParentMax=0;resizeLast=0;collapsible=1;marginBottom=0;fontSize=15;gradientColor=#ffffff;swimlaneFillColor=#ffffff;" parent="1" vertex="1">
          <mxGeometry x="80" y="-1000" width="220" height="52" as="geometry" />
        </mxCell>
        <mxCell id="lzLQNb4hXkD1QpoMvITh-564" value="+ startingDate: Date" style="text;strokeColor=none;fillColor=none;align=left;verticalAlign=top;spacingLeft=4;spacingRight=4;overflow=hidden;rotatable=0;points=[[0,0.5],[1,0.5]];portConstraint=eastwest;" parent="lzLQNb4hXkD1QpoMvITh-562" vertex="1">
          <mxGeometry y="26" width="220" height="26" as="geometry" />
        </mxCell>
        <mxCell id="lzLQNb4hXkD1QpoMvITh-569" value="FacadeShiftType" style="swimlane;fontStyle=1;align=center;verticalAlign=top;childLayout=stackLayout;horizontal=1;startSize=26;horizontalStack=0;resizeParent=1;resizeParentMax=0;resizeLast=0;collapsible=1;marginBottom=0;fontSize=15;gradientColor=#ffffff;swimlaneFillColor=#ffffff;" parent="1" vertex="1">
          <mxGeometry x="308" y="-1000" width="200" height="78" as="geometry" />
        </mxCell>
        <mxCell id="lzLQNb4hXkD1QpoMvITh-570" value="- manning: map&lt;Role, int&gt;" style="text;strokeColor=none;fillColor=none;align=left;verticalAlign=top;spacingLeft=4;spacingRight=4;overflow=hidden;rotatable=0;points=[[0,0.5],[1,0.5]];portConstraint=eastwest;" parent="lzLQNb4hXkD1QpoMvITh-569" vertex="1">
          <mxGeometry y="26" width="200" height="26" as="geometry" />
        </mxCell>
        <mxCell id="lzLQNb4hXkD1QpoMvITh-571" value="- type: string" style="text;strokeColor=none;fillColor=none;align=left;verticalAlign=top;spacingLeft=4;spacingRight=4;overflow=hidden;rotatable=0;points=[[0,0.5],[1,0.5]];portConstraint=eastwest;" parent="lzLQNb4hXkD1QpoMvITh-569" vertex="1">
          <mxGeometry y="52" width="200" height="26" as="geometry" />
        </mxCell>
        <mxCell id="lzLQNb4hXkD1QpoMvITh-579" value="FacadeEmployee" style="swimlane;fontStyle=1;align=center;verticalAlign=top;childLayout=stackLayout;horizontal=1;startSize=26;horizontalStack=0;resizeParent=1;resizeParentMax=0;resizeLast=0;collapsible=1;marginBottom=0;fontSize=15;gradientColor=#ffffff;swimlaneFillColor=#ffffff;" parent="1" vertex="1">
          <mxGeometry x="90" y="-1300" width="220" height="104" as="geometry" />
        </mxCell>
        <mxCell id="lzLQNb4hXkD1QpoMvITh-580" value="- role : Role" style="text;strokeColor=none;fillColor=none;align=left;verticalAlign=top;spacingLeft=4;spacingRight=4;overflow=hidden;rotatable=0;points=[[0,0.5],[1,0.5]];portConstraint=eastwest;" parent="lzLQNb4hXkD1QpoMvITh-579" vertex="1">
          <mxGeometry y="26" width="220" height="26" as="geometry" />
        </mxCell>
        <mxCell id="lzLQNb4hXkD1QpoMvITh-581" value="- ID : int&#xa;" style="text;strokeColor=none;fillColor=none;align=left;verticalAlign=top;spacingLeft=4;spacingRight=4;overflow=hidden;rotatable=0;points=[[0,0.5],[1,0.5]];portConstraint=eastwest;" parent="lzLQNb4hXkD1QpoMvITh-579" vertex="1">
          <mxGeometry y="52" width="220" height="26" as="geometry" />
        </mxCell>
        <mxCell id="lzLQNb4hXkD1QpoMvITh-583" value="- transactionDate : Date&#xa;" style="text;strokeColor=none;fillColor=none;align=left;verticalAlign=top;spacingLeft=4;spacingRight=4;overflow=hidden;rotatable=0;points=[[0,0.5],[1,0.5]];portConstraint=eastwest;" parent="lzLQNb4hXkD1QpoMvITh-579" vertex="1">
          <mxGeometry y="78" width="220" height="26" as="geometry" />
        </mxCell>
        <mxCell id="lzLQNb4hXkD1QpoMvITh-590" value="FacadeBankAccountInfo" style="swimlane;fontStyle=1;align=center;verticalAlign=top;childLayout=stackLayout;horizontal=1;startSize=26;horizontalStack=0;resizeParent=1;resizeParentMax=0;resizeLast=0;collapsible=1;marginBottom=0;fontSize=15;gradientColor=#ffffff;swimlaneFillColor=#ffffff;" parent="1" vertex="1">
          <mxGeometry x="330" y="-1300" width="200" height="104" as="geometry" />
        </mxCell>
        <mxCell id="lzLQNb4hXkD1QpoMvITh-591" value="- accountNumber : int" style="text;strokeColor=none;fillColor=none;align=left;verticalAlign=top;spacingLeft=4;spacingRight=4;overflow=hidden;rotatable=0;points=[[0,0.5],[1,0.5]];portConstraint=eastwest;" parent="lzLQNb4hXkD1QpoMvITh-590" vertex="1">
          <mxGeometry y="26" width="200" height="26" as="geometry" />
        </mxCell>
        <mxCell id="lzLQNb4hXkD1QpoMvITh-592" value="- bankBranch: int&#xa;" style="text;strokeColor=none;fillColor=none;align=left;verticalAlign=top;spacingLeft=4;spacingRight=4;overflow=hidden;rotatable=0;points=[[0,0.5],[1,0.5]];portConstraint=eastwest;" parent="lzLQNb4hXkD1QpoMvITh-590" vertex="1">
          <mxGeometry y="52" width="200" height="26" as="geometry" />
        </mxCell>
        <mxCell id="lzLQNb4hXkD1QpoMvITh-593" value="- bank: string&#xa;" style="text;strokeColor=none;fillColor=none;align=left;verticalAlign=top;spacingLeft=4;spacingRight=4;overflow=hidden;rotatable=0;points=[[0,0.5],[1,0.5]];portConstraint=eastwest;" parent="lzLQNb4hXkD1QpoMvITh-590" vertex="1">
          <mxGeometry y="78" width="200" height="26" as="geometry" />
        </mxCell>
        <mxCell id="lzLQNb4hXkD1QpoMvITh-594" value="FacadeTermsOfEmployment" style="swimlane;fontStyle=1;align=center;verticalAlign=top;childLayout=stackLayout;horizontal=1;startSize=26;horizontalStack=0;resizeParent=1;resizeParentMax=0;resizeLast=0;collapsible=1;marginBottom=0;fontSize=15;gradientColor=#ffffff;swimlaneFillColor=#ffffff;" parent="1" vertex="1">
          <mxGeometry x="550" y="-1150" width="210" height="130" as="geometry" />
        </mxCell>
        <mxCell id="lzLQNb4hXkD1QpoMvITh-595" value="- salary : int" style="text;strokeColor=none;fillColor=none;align=left;verticalAlign=top;spacingLeft=4;spacingRight=4;overflow=hidden;rotatable=0;points=[[0,0.5],[1,0.5]];portConstraint=eastwest;" parent="lzLQNb4hXkD1QpoMvITh-594" vertex="1">
          <mxGeometry y="26" width="210" height="26" as="geometry" />
        </mxCell>
        <mxCell id="lzLQNb4hXkD1QpoMvITh-596" value="- educationFund : int&#xa;" style="text;strokeColor=none;fillColor=none;align=left;verticalAlign=top;spacingLeft=4;spacingRight=4;overflow=hidden;rotatable=0;points=[[0,0.5],[1,0.5]];portConstraint=eastwest;" parent="lzLQNb4hXkD1QpoMvITh-594" vertex="1">
          <mxGeometry y="52" width="210" height="26" as="geometry" />
        </mxCell>
        <mxCell id="lzLQNb4hXkD1QpoMvITh-597" value="- sickDays : int&#xa;" style="text;strokeColor=none;fillColor=none;align=left;verticalAlign=top;spacingLeft=4;spacingRight=4;overflow=hidden;rotatable=0;points=[[0,0.5],[1,0.5]];portConstraint=eastwest;" parent="lzLQNb4hXkD1QpoMvITh-594" vertex="1">
          <mxGeometry y="78" width="210" height="26" as="geometry" />
        </mxCell>
        <mxCell id="lzLQNb4hXkD1QpoMvITh-598" value="- daysOff : int&#xa;" style="text;strokeColor=none;fillColor=none;align=left;verticalAlign=top;spacingLeft=4;spacingRight=4;overflow=hidden;rotatable=0;points=[[0,0.5],[1,0.5]];portConstraint=eastwest;" parent="lzLQNb4hXkD1QpoMvITh-594" vertex="1">
          <mxGeometry y="104" width="210" height="26" as="geometry" />
        </mxCell>
        <mxCell id="lzLQNb4hXkD1QpoMvITh-599" value="FacadeConstraint" style="swimlane;fontStyle=1;align=center;verticalAlign=top;childLayout=stackLayout;horizontal=1;startSize=26;horizontalStack=0;resizeParent=1;resizeParentMax=0;resizeLast=0;collapsible=1;marginBottom=0;fontSize=15;gradientColor=#ffffff;swimlaneFillColor=#ffffff;" parent="1" vertex="1">
          <mxGeometry x="550" y="-1300" width="210" height="130" as="geometry" />
        </mxCell>
        <mxCell id="lzLQNb4hXkD1QpoMvITh-600" value="+ date: Date" style="text;strokeColor=none;fillColor=none;align=left;verticalAlign=top;spacingLeft=4;spacingRight=4;overflow=hidden;rotatable=0;points=[[0,0.5],[1,0.5]];portConstraint=eastwest;" parent="lzLQNb4hXkD1QpoMvITh-599" vertex="1">
          <mxGeometry y="26" width="210" height="26" as="geometry" />
        </mxCell>
        <mxCell id="lzLQNb4hXkD1QpoMvITh-601" value="+ morningShift: bool" style="text;strokeColor=none;fillColor=none;align=left;verticalAlign=top;spacingLeft=4;spacingRight=4;overflow=hidden;rotatable=0;points=[[0,0.5],[1,0.5]];portConstraint=eastwest;" parent="lzLQNb4hXkD1QpoMvITh-599" vertex="1">
          <mxGeometry y="52" width="210" height="26" as="geometry" />
        </mxCell>
        <mxCell id="lzLQNb4hXkD1QpoMvITh-602" value="+ eveningShift: bool" style="text;strokeColor=none;fillColor=none;align=left;verticalAlign=top;spacingLeft=4;spacingRight=4;overflow=hidden;rotatable=0;points=[[0,0.5],[1,0.5]];portConstraint=eastwest;" parent="lzLQNb4hXkD1QpoMvITh-599" vertex="1">
          <mxGeometry y="78" width="210" height="26" as="geometry" />
        </mxCell>
        <mxCell id="lzLQNb4hXkD1QpoMvITh-603" value="+ reason: string" style="text;strokeColor=none;fillColor=none;align=left;verticalAlign=top;spacingLeft=4;spacingRight=4;overflow=hidden;rotatable=0;points=[[0,0.5],[1,0.5]];portConstraint=eastwest;" parent="lzLQNb4hXkD1QpoMvITh-599" vertex="1">
          <mxGeometry y="104" width="210" height="26" as="geometry" />
        </mxCell>
        <mxCell id="lzLQNb4hXkD1QpoMvITh-605" value="FacadeObject&lt;&lt;interface&gt;&gt;" style="swimlane;fontStyle=1;align=center;verticalAlign=top;childLayout=stackLayout;horizontal=1;startSize=26;horizontalStack=0;resizeParent=1;resizeParentMax=0;resizeLast=0;collapsible=1;marginBottom=0;fontSize=15;gradientColor=#ffffff;swimlaneFillColor=#ffffff;" parent="1" vertex="1">
          <mxGeometry x="90" y="-1162" width="220" height="34" as="geometry" />
        </mxCell>
        <mxCell id="lzLQNb4hXkD1QpoMvITh-610" value="" style="endArrow=block;dashed=1;endFill=0;endSize=12;html=1;labelBackgroundColor=none;fontSize=16;exitX=0.505;exitY=0.954;exitDx=0;exitDy=0;exitPerimeter=0;entryX=0.5;entryY=0;entryDx=0;entryDy=0;" parent="1" source="lzLQNb4hXkD1QpoMvITh-583" target="lzLQNb4hXkD1QpoMvITh-605" edge="1">
          <mxGeometry width="160" relative="1" as="geometry">
            <mxPoint x="190.76" y="-1190.336" as="sourcePoint" />
            <mxPoint x="910" y="-960" as="targetPoint" />
          </mxGeometry>
        </mxCell>
        <mxCell id="lzLQNb4hXkD1QpoMvITh-611" value="" style="endArrow=block;dashed=1;endFill=0;endSize=12;html=1;labelBackgroundColor=none;fontSize=16;exitX=0.188;exitY=1.077;exitDx=0;exitDy=0;entryX=0.5;entryY=0;entryDx=0;entryDy=0;exitPerimeter=0;" parent="1" source="lzLQNb4hXkD1QpoMvITh-593" target="lzLQNb4hXkD1QpoMvITh-605" edge="1">
          <mxGeometry width="160" relative="1" as="geometry">
            <mxPoint x="980.7600000000002" y="-1180.3359999999998" as="sourcePoint" />
            <mxPoint x="990" y="-984" as="targetPoint" />
          </mxGeometry>
        </mxCell>
        <mxCell id="lzLQNb4hXkD1QpoMvITh-612" value="" style="endArrow=block;dashed=1;endFill=0;endSize=12;html=1;labelBackgroundColor=none;fontSize=16;exitX=0;exitY=0.5;exitDx=0;exitDy=0;entryX=0.5;entryY=0;entryDx=0;entryDy=0;" parent="1" source="lzLQNb4hXkD1QpoMvITh-603" target="lzLQNb4hXkD1QpoMvITh-605" edge="1">
          <mxGeometry width="160" relative="1" as="geometry">
            <mxPoint x="1120" y="-1199" as="sourcePoint" />
            <mxPoint x="990" y="-984" as="targetPoint" />
          </mxGeometry>
        </mxCell>
        <mxCell id="lzLQNb4hXkD1QpoMvITh-613" value="" style="endArrow=block;dashed=1;endFill=0;endSize=12;html=1;labelBackgroundColor=none;fontSize=16;exitX=0;exitY=0.5;exitDx=0;exitDy=0;entryX=1;entryY=0.5;entryDx=0;entryDy=0;" parent="1" source="lzLQNb4hXkD1QpoMvITh-596" target="lzLQNb4hXkD1QpoMvITh-605" edge="1">
          <mxGeometry width="160" relative="1" as="geometry">
            <mxPoint x="1120" y="-1079" as="sourcePoint" />
            <mxPoint x="990" y="-984" as="targetPoint" />
          </mxGeometry>
        </mxCell>
        <mxCell id="lzLQNb4hXkD1QpoMvITh-614" value="" style="endArrow=block;dashed=1;endFill=0;endSize=12;html=1;labelBackgroundColor=none;fontSize=16;exitX=0;exitY=0;exitDx=0;exitDy=0;entryX=0.5;entryY=1;entryDx=0;entryDy=0;" parent="1" source="lzLQNb4hXkD1QpoMvITh-555" target="lzLQNb4hXkD1QpoMvITh-605" edge="1">
          <mxGeometry width="160" relative="1" as="geometry">
            <mxPoint x="1120" y="-929" as="sourcePoint" />
            <mxPoint x="990" y="-950" as="targetPoint" />
          </mxGeometry>
        </mxCell>
        <mxCell id="lzLQNb4hXkD1QpoMvITh-615" value="" style="endArrow=block;dashed=1;endFill=0;endSize=12;html=1;labelBackgroundColor=none;fontSize=16;exitX=0.25;exitY=0;exitDx=0;exitDy=0;entryX=0.5;entryY=1;entryDx=0;entryDy=0;" parent="1" source="lzLQNb4hXkD1QpoMvITh-569" target="lzLQNb4hXkD1QpoMvITh-605" edge="1">
          <mxGeometry width="160" relative="1" as="geometry">
            <mxPoint x="1120" y="-815" as="sourcePoint" />
            <mxPoint x="1045" y="-949.9999999999995" as="targetPoint" />
          </mxGeometry>
        </mxCell>
        <mxCell id="lzLQNb4hXkD1QpoMvITh-616" value="" style="endArrow=block;dashed=1;endFill=0;endSize=12;html=1;labelBackgroundColor=none;fontSize=16;exitX=0.5;exitY=0;exitDx=0;exitDy=0;entryX=0.5;entryY=1;entryDx=0;entryDy=0;" parent="1" source="lzLQNb4hXkD1QpoMvITh-562" target="lzLQNb4hXkD1QpoMvITh-605" edge="1">
          <mxGeometry width="160" relative="1" as="geometry">
            <mxPoint x="1120" y="-743" as="sourcePoint" />
            <mxPoint x="990" y="-949.9999999999995" as="targetPoint" />
          </mxGeometry>
        </mxCell>
        <mxCell id="lzLQNb4hXkD1QpoMvITh-626" value="" style="endArrow=open;startArrow=cross;endFill=0;startFill=0;endSize=8;startSize=10;html=1;labelBackgroundColor=none;fontSize=16;entryX=0.5;entryY=0;entryDx=0;entryDy=0;exitX=0.5;exitY=0;exitDx=0;exitDy=0;edgeStyle=orthogonalEdgeStyle;" parent="1" source="lzLQNb4hXkD1QpoMvITh-527" target="lzLQNb4hXkD1QpoMvITh-630" edge="1">
          <mxGeometry width="160" relative="1" as="geometry">
            <mxPoint x="660" y="-1340" as="sourcePoint" />
            <mxPoint x="353.5" y="-730" as="targetPoint" />
            <Array as="points">
              <mxPoint x="595" y="-750" />
              <mxPoint x="450" y="-750" />
            </Array>
          </mxGeometry>
        </mxCell>
        <mxCell id="lzLQNb4hXkD1QpoMvITh-628" value="ShiftService" style="swimlane;fontStyle=1;align=center;verticalAlign=top;childLayout=stackLayout;horizontal=1;startSize=26;horizontalStack=0;resizeParent=1;resizeParentMax=0;resizeLast=0;collapsible=1;marginBottom=0;fontSize=11;" parent="1" vertex="1">
          <mxGeometry x="678" y="-717.5" width="120" height="27.5" as="geometry" />
        </mxCell>
        <mxCell id="lzLQNb4hXkD1QpoMvITh-630" value="EmployeeService" style="swimlane;fontStyle=1;align=center;verticalAlign=top;childLayout=stackLayout;horizontal=1;startSize=26;horizontalStack=0;resizeParent=1;resizeParentMax=0;resizeLast=0;collapsible=1;marginBottom=0;fontSize=11;" parent="1" vertex="1">
          <mxGeometry x="390" y="-717.5" width="120" height="27" as="geometry" />
        </mxCell>
        <mxCell id="lzLQNb4hXkD1QpoMvITh-632" value="Main" style="swimlane;fontStyle=1;align=center;verticalAlign=top;childLayout=stackLayout;horizontal=1;startSize=26;horizontalStack=0;resizeParent=1;resizeParentMax=0;resizeLast=0;collapsible=1;marginBottom=0;fontSize=11;" parent="1" vertex="1">
          <mxGeometry x="160" y="-1501" width="100" height="27" as="geometry">
            <mxRectangle x="3311" y="-1597.5" width="60" height="26" as="alternateBounds" />
          </mxGeometry>
        </mxCell>
        <mxCell id="lzLQNb4hXkD1QpoMvITh-633" value="" style="line;strokeWidth=2;align=left;verticalAlign=middle;spacingTop=-1;spacingLeft=3;spacingRight=3;rotatable=0;labelPosition=right;points=[];portConstraint=eastwest;fillColor=none;perimeterSpacing=0;" parent="lzLQNb4hXkD1QpoMvITh-632" vertex="1">
          <mxGeometry y="26" width="100" height="1" as="geometry" />
        </mxCell>
        <mxCell id="JvyMi1Kjgh4Lt-5XRF5f-20" value="has" style="endArrow=none;endSize=12;html=1;labelBackgroundColor=none;fontSize=13;exitX=0.5;exitY=0;exitDx=0;exitDy=0;entryX=1;entryY=0.5;entryDx=0;entryDy=0;edgeStyle=orthogonalEdgeStyle;startArrow=cross;startFill=0;endFill=0;" edge="1" parent="1" source="lzLQNb4hXkD1QpoMvITh-579" target="lzLQNb4hXkD1QpoMvITh-600">
          <mxGeometry x="0.011" y="-10" width="160" relative="1" as="geometry">
            <mxPoint x="75" y="-1280" as="sourcePoint" />
            <mxPoint x="-85" y="-1157" as="targetPoint" />
            <Array as="points">
              <mxPoint x="200" y="-1350" />
              <mxPoint x="780" y="-1350" />
              <mxPoint x="780" y="-1261" />
            </Array>
            <mxPoint as="offset" />
          </mxGeometry>
        </mxCell>
        <mxCell id="JvyMi1Kjgh4Lt-5XRF5f-21" value="*" style="edgeLabel;html=1;align=center;verticalAlign=middle;resizable=0;points=[];fontSize=16;labelBackgroundColor=none;" vertex="1" connectable="0" parent="JvyMi1Kjgh4Lt-5XRF5f-20">
          <mxGeometry x="0.679" y="2" relative="1" as="geometry">
            <mxPoint x="8" y="-105" as="offset" />
          </mxGeometry>
        </mxCell>
        <mxCell id="JvyMi1Kjgh4Lt-5XRF5f-23" value="*" style="edgeLabel;html=1;align=center;verticalAlign=middle;resizable=0;points=[];fontSize=13;labelBackgroundColor=none;" vertex="1" connectable="0" parent="JvyMi1Kjgh4Lt-5XRF5f-20">
          <mxGeometry x="0.9042" y="-3" relative="1" as="geometry">
            <mxPoint x="-7" y="6" as="offset" />
          </mxGeometry>
        </mxCell>
        <mxCell id="JvyMi1Kjgh4Lt-5XRF5f-24" value="has" style="endArrow=openThin;endSize=12;html=1;labelBackgroundColor=none;fontSize=13;exitX=0.5;exitY=0;exitDx=0;exitDy=0;entryX=1;entryY=0.5;entryDx=0;entryDy=0;edgeStyle=orthogonalEdgeStyle;startArrow=cross;startFill=0;endFill=0;" edge="1" parent="1" source="lzLQNb4hXkD1QpoMvITh-579" target="lzLQNb4hXkD1QpoMvITh-595">
          <mxGeometry x="0.8084" y="10" width="160" relative="1" as="geometry">
            <mxPoint x="210" y="-1290" as="sourcePoint" />
            <mxPoint x="770" y="-1251" as="targetPoint" />
            <Array as="points">
              <mxPoint x="200" y="-1350" />
              <mxPoint x="800" y="-1350" />
              <mxPoint x="800" y="-1111" />
            </Array>
            <mxPoint as="offset" />
          </mxGeometry>
        </mxCell>
        <mxCell id="JvyMi1Kjgh4Lt-5XRF5f-28" value="has" style="endArrow=openThin;endSize=12;html=1;labelBackgroundColor=none;fontSize=13;exitX=0.75;exitY=0;exitDx=0;exitDy=0;entryX=0.5;entryY=0;entryDx=0;entryDy=0;edgeStyle=orthogonalEdgeStyle;startArrow=diamondThin;startFill=1;endFill=0;" edge="1" parent="1" source="lzLQNb4hXkD1QpoMvITh-579" target="lzLQNb4hXkD1QpoMvITh-590">
          <mxGeometry x="0.8545" y="20" width="160" relative="1" as="geometry">
            <mxPoint x="220" y="-1280" as="sourcePoint" />
            <mxPoint x="780" y="-1091" as="targetPoint" />
            <Array as="points">
              <mxPoint x="255" y="-1350" />
              <mxPoint x="430" y="-1350" />
            </Array>
            <mxPoint as="offset" />
          </mxGeometry>
        </mxCell>
        <mxCell id="JvyMi1Kjgh4Lt-5XRF5f-29" value="composed" style="endArrow=openThin;endSize=12;html=1;labelBackgroundColor=none;fontSize=13;exitX=0.75;exitY=0;exitDx=0;exitDy=0;entryX=0.5;entryY=0;entryDx=0;entryDy=0;edgeStyle=orthogonalEdgeStyle;startArrow=diamondThin;startFill=1;endFill=0;" edge="1" parent="1" source="lzLQNb4hXkD1QpoMvITh-562" target="lzLQNb4hXkD1QpoMvITh-569">
          <mxGeometry x="0.2446" y="10" width="160" relative="1" as="geometry">
            <mxPoint x="265" y="-1290" as="sourcePoint" />
            <mxPoint x="440" y="-1290" as="targetPoint" />
            <Array as="points">
              <mxPoint x="255" y="-1030" />
              <mxPoint x="428" y="-1030" />
            </Array>
            <mxPoint as="offset" />
          </mxGeometry>
        </mxCell>
        <mxCell id="JvyMi1Kjgh4Lt-5XRF5f-30" value="is a" style="endArrow=openThin;endSize=12;html=1;labelBackgroundColor=none;fontSize=13;exitX=1;exitY=0.5;exitDx=0;exitDy=0;entryX=0;entryY=0.5;entryDx=0;entryDy=0;edgeStyle=orthogonalEdgeStyle;startArrow=cross;startFill=0;endFill=0;" edge="1" parent="1" source="lzLQNb4hXkD1QpoMvITh-570" target="lzLQNb4hXkD1QpoMvITh-556">
          <mxGeometry x="0.0476" y="19" width="160" relative="1" as="geometry">
            <mxPoint x="275" y="-1280" as="sourcePoint" />
            <mxPoint x="450" y="-1280" as="targetPoint" />
            <Array as="points">
              <mxPoint x="540" y="-961" />
              <mxPoint x="540" y="-961" />
            </Array>
            <mxPoint as="offset" />
          </mxGeometry>
        </mxCell>
      </root>
    </mxGraphModel>
  </diagram>
</mxfile>
